<svg xmlns="http://www.w3.org/2000/svg" fill="none" viewBox="0 0 128 128">
    <path d="M50.4 78.5a75.1 75.1 0 0 0-28.5 6.9l24.2-65.3c.7-2 1.9-3.2 3.4-3.2h29c1.5 0 2.7 1.2 3.4 3.2l24.2 65.3a75.1 75.1 0 0 0-28.6-6.9c-2.6-.3-5.2-.4-7.9-.4-2.7 0-5.3.1-7.9.4a75.1 75.1 0 0 0-28.5-6.9c-2.6-.3-5.2-.4-7.9-.4-2.7 0-5.3.1-7.9.4Z" fill="#BC52EE"/>
    <path d="M91.4 72.5c-2.6-.3-5.2-.4-7.9-.4-2.7 0-5.3.1-7.9.4a75.1 75.1 0 0 0-28.5-6.9c-2.6-.3-5.2-.4-7.9-.4-2.7 0-5.3.1-7.9.4a75.1 75.1 0 0 0-28.5 6.9l24.2-65.3c.7-2 1.9-3.2 3.4-3.2h29c1.5 0 2.7 1.2 3.4 3.2l24.2 65.3a75.1 75.1 0 0 0-28.6-6.9Z" stroke="#fff" stroke-width="2" stroke-linecap="round" stroke-linejoin="round"/>
</svg>
