<?xml version="1.0" encoding="utf-8"?>
<!-- Generator: Adobe Illustrator 24.3.0, SVG Export Plug-In . SVG Version: 6.00 Build 0)  -->
<svg version="1.1" id="Capa_2" xmlns="http://www.w3.org/2000/svg" xmlns:xlink="http://www.w3.org/1999/xlink" x="0px" y="0px"
	 viewBox="0 0 2048 2048" style="enable-background:new 0 0 2048 2048;" xml:space="preserve">
<style type="text/css">
	.st0{stroke:#1D1D1B;stroke-linejoin:round;stroke-miterlimit:10;}
	.st1{fill:none;stroke:#FFFFFF;stroke-width:122.0153;stroke-linejoin:round;stroke-miterlimit:10;}
	.st2{fill:#FFFFFF;}
</style>
<circle class="st0" cx="1024" cy="1024" r="868.75"/>
<g>
	<path class="st1" d="M775.28,833.83c0,0-283.22-299.46-150.69-385.36c140.9-91.33,314.16,269.98,454.09,283.95
		c146.03,14.57,402.8-242.87,504.15-134.47c124.15,132.78-261.75,334.43-261.75,334.43s301.36,36.49,278.87,218.07
		c-27.97,225.78-364.22,147.24-364.22,147.24s-50.72,335.43-292.07,315.78c-235.3-19.16-196.35-401.69-196.35-401.69
		s-341.16-12.27-303.93-228.24C478.83,778,775.28,833.83,775.28,833.83z"/>
	<g>
		<g>
			<g>
				<path class="st2" d="M843.82,1108.97c11.7,0.44,22.61-2,32.74-7.32c10.53-3.43,19.65-9.28,27.35-17.57
					c8.29-7.7,14.14-16.81,17.57-27.35c5.32-10.13,7.76-21.04,7.32-32.74c-0.98-21.98-8.2-44.77-24.89-60.09
					c-16.63-15.26-37.06-24.89-60.09-24.89c-11.7-0.44-22.61,2-32.74,7.32c-10.53,3.43-19.65,9.28-27.35,17.57
					c-8.29,7.7-14.14,16.81-17.57,27.35c-5.32,10.13-7.76,21.04-7.32,32.74c0.98,21.98,8.2,44.77,24.89,60.09
					C800.36,1099.35,820.8,1108.97,843.82,1108.97L843.82,1108.97z"/>
			</g>
		</g>
		<g>
			<g>
				<path class="st2" d="M1204.18,1166.34c11.7,0.44,22.61-2,32.74-7.32c10.53-3.43,19.65-9.28,27.35-17.57
					c8.29-7.7,14.14-16.81,17.57-27.35c5.32-10.13,7.76-21.04,7.32-32.74c-0.98-21.98-8.2-44.77-24.89-60.09
					c-16.63-15.26-37.06-24.89-60.09-24.89c-11.7-0.44-22.61,2-32.74,7.32c-10.53,3.43-19.65,9.28-27.35,17.57
					c-8.29,7.7-14.14,16.81-17.57,27.35c-5.32,10.13-7.76,21.04-7.32,32.74c0.98,21.98,8.2,44.77,24.89,60.09
					C1160.72,1156.72,1181.16,1166.34,1204.18,1166.34L1204.18,1166.34z"/>
			</g>
		</g>
	</g>
</g>
</svg>
