<svg id="e2f0e147-68db-46df-95ee-7a4241a9d6a2" data-name="Capa 2" xmlns="http://www.w3.org/2000/svg" viewBox="0 0 1671.4341 1689.21093"><path d="M701.4684,777.3983S334.19216,389.06668,506.06331,277.66872c182.7195-118.42931,407.39828,350.10789,588.85386,368.21335,189.36735,18.89488,522.33526-314.944,653.77127-174.37149,160.98924,172.18-339.43728,433.68553-339.43728,433.68553s390.8026,47.31993,361.63771,282.78327c-36.26514,292.78737-472.3086,190.9378-472.3086,190.9378s-65.77785,434.98253-378.75309,409.49744c-305.13443-24.84664-254.62392-520.89541-254.62392-520.89541s-442.40906-15.914-394.12386-295.97016C317.03639,704.99665,701.4684,777.3983,701.4684,777.3983Z" transform="translate(-188.28295 -179.39453)" fill="none" stroke="#1d1d1b" stroke-linejoin="round" stroke-width="158.22638"/><path d="M790.346,1134.19131a82.98635,82.98635,0,0,0,42.45444-9.49024,99.09043,99.09043,0,0,0,58.24663-58.24663A82.98641,82.98641,0,0,0,900.5373,1024l-3.93614-29.29322A110.08916,110.08916,0,0,0,868.263,946.083l-22.30136-17.23A109.68258,109.68258,0,0,0,790.346,913.80869a82.9864,82.9864,0,0,0-42.45444,9.49024,99.0905,99.0905,0,0,0-58.24663,58.24663A82.9864,82.9864,0,0,0,680.15467,1024l3.93614,29.29322A110.089,110.089,0,0,0,712.429,1101.917l22.30136,17.22995a109.68254,109.68254,0,0,0,55.61566,15.04434Z" transform="translate(-188.28295 -179.39453)" fill="#1d1d1b"/><path d="M1257.654,1208.58861a82.9864,82.9864,0,0,0,42.45444-9.49024,99.0905,99.0905,0,0,0,58.24663-58.24663,82.9864,82.9864,0,0,0,9.49024-42.45444l-3.93614-29.29322a110.08906,110.08906,0,0,0-28.33815-48.62381l-22.30136-17.22994A109.68254,109.68254,0,0,0,1257.654,988.206a82.98625,82.98625,0,0,0-42.45444,9.49024,99.09036,99.09036,0,0,0-58.24663,58.24663,82.98641,82.98641,0,0,0-9.49025,42.45444l3.93614,29.29321a110.08914,110.08914,0,0,0,28.33815,48.62381l22.30136,17.23a109.68258,109.68258,0,0,0,55.61567,15.04434Z" transform="translate(-188.28295 -179.39453)" fill="#1d1d1b"/></svg>